HIERARCHY
ROOT Hips
{
  OFFSET 59.9247 94.8494 237.314
  CHANNELS 6 Xposition Yposition Zposition Zrotation Xrotation Yrotation
  JOINT RightUpLeg
  {
    OFFSET -8.9458 -8.66707 0.101652
    CHANNELS 3 Zrotation Xrotation Yrotation
    JOINT RightLeg
    {
      OFFSET 0 -44.4227 1.3727
      CHANNELS 3 Zrotation Xrotation Yrotation
      JOINT RightFoot
      {
        OFFSET 0.253549 -42.0924 -1.46059
        CHANNELS 3 Zrotation Xrotation Yrotation
        JOINT RightToes
        {
          OFFSET 0.04 -4.41509 8.4991
          CHANNELS 3 Zrotation Xrotation Yrotation
          End Site
          {
            OFFSET -0.08 -0.137448 9.77979
          }
        }
      }
    }
  }
  JOINT Spine
  {
    OFFSET 0 11.8905 0
    CHANNELS 3 Zrotation Xrotation Yrotation
    JOINT Spine1
    {
      OFFSET 0 25.6574 0.127663
      CHANNELS 3 Zrotation Xrotation Yrotation
      JOINT HEad
      {
        OFFSET 0 8.73416 0.011341
        CHANNELS 3 Zrotation Xrotation Yrotation
        End Site
        {
          OFFSET -0.29 12.7742 2.51395
        }
      }
      JOINT LeftShoulder1
      {
        OFFSET 8.99 -0.362252 -0.22
        CHANNELS 3 Zrotation Xrotation Yrotation
        JOINT LeftArm
        {
          OFFSET 10.2827 -0.00338 0.322123
          CHANNELS 3 Zrotation Xrotation Yrotation
          JOINT LeftForeArm
          {
            OFFSET 32.7669 0.099144 -1.42434
            CHANNELS 3 Zrotation Xrotation Yrotation
            JOINT LeftHand
            {
              OFFSET 27.5643 0.085362 1.02216
              CHANNELS 3 Zrotation Xrotation Yrotation
              End Site
              {
                OFFSET 16.7443 -0.6 1.50291
              }
            }
          }
        }
      }
      JOINT RightShoulder
      {
        OFFSET -8.99 -0.362252 -0.22
        CHANNELS 3 Zrotation Xrotation Yrotation
        JOINT RightArm
        {
          OFFSET -10.2827 -0.00338 0.322123
          CHANNELS 3 Zrotation Xrotation Yrotation
          JOINT RightForeArm
          {
            OFFSET -32.8971 0.099144 -1.42434
            CHANNELS 3 Zrotation Xrotation Yrotation
            JOINT RightHand
            {
              OFFSET -27.4921 0.085362 1.02216
              CHANNELS 3 Zrotation Xrotation Yrotation
              End Site
              {
                OFFSET -16.6312 -0.6 1.50291
              }
            }
          }
        }
      }
    }
  }
  JOINT LeftUpLeg
  {
    OFFSET 8.9458 -8.66707 0.101652
    CHANNELS 3 Zrotation Xrotation Yrotation
    JOINT LeftLeg
    {
      OFFSET 0 -44.4227 1.3727
      CHANNELS 3 Zrotation Xrotation Yrotation
      JOINT LeftFoot
      {
        OFFSET -0.253549 -42.0924 -1.46059
        CHANNELS 3 Zrotation Xrotation Yrotation
        JOINT LeftToes
        {
          OFFSET -0.04 -4.41509 8.4991
          CHANNELS 3 Zrotation Xrotation Yrotation
          End Site
          {
            OFFSET 0.08 -0.047448 9.77979
          }
        }
      }
    }
  }
}
MOTION
Frames:	12
Frame Time:	0.0166667
7.7843	102.686	-221.82	6.14552	10.6967	172.093	-37.019	-51.1331	-28.9829	7.01369	31.0437	-32.6128	2.7463	-7.39086	-11.8978	0.0462048	0.000533964	0.662642	-0.620512	-1.62823	-0.035591	-1.24281	-3.2532	-0.0890804	10.6255	25.0984	-13.2183	0.00E+00	0.00E+00	-3.18E-15	-61.5578	17.4736	19.2207	-11.4447	2.34916	-21.3906	0.775453	4.29742	1.57791	0.00E+00	0.00E+00	-3.18E-15	22.5989	-1.40151	24.3422	16.9596	-29.5632	47.8666	-11.2607	1.64211	1.29454	8.11616	-2.48195	21.5977	1.25094	24.3801	-7.67482	-23.2147	-16.3392	-35.7019	1.19E-14	3.02E-14	1.27E-14
8.1171	102.834	-222.274	6.49066	11.3409	172.502	-37.9876	-51.061	-29.4053	5.88309	30.485	-31.7515	2.02852	-8.14496	-13.3337	0.0462048	0.000533964	0.662642	-0.564212	-1.57041	-0.14093	-1.13294	-3.13657	-0.297699	10.828	25.687	-13.8479	3.98E-16	6.36E-15	0.00E+00	-62.2911	18.1196	18.3902	-11.4006	2.21887	-21.4405	0.93226	4.26403	1.4874	3.98E-16	6.36E-15	0.00E+00	22.053	-2.29027	23.5452	16.4833	-29.1498	47.4971	-12.1359	1.89156	1.55323	8.46582	-1.3708	21.1103	1.28545	24.025	-7.86852	-23.1698	-16.2485	-35.4894	6.36E-15	3.02E-14	3.18E-15
8.414	102.988	-222.816	6.83803	11.829	172.772	-38.7873	-51.0514	-29.3864	5.08627	30.3558	-30.6074	1.26275	-8.56676	-14.6444	0.0462048	0.000533964	0.662642	-0.503842	-1.54828	-0.222154	-1.01426	-3.09175	-0.458382	11.0743	26.2222	-14.4001	8.83E-32	-3.18E-15	1.59E-15	-62.8765	18.4222	17.7703	-11.3901	1.92731	-21.5619	1.12383	4.26392	1.3405	8.83E-32	-3.18E-15	1.59E-15	21.9236	-3.4056	22.693	16.0481	-28.4025	47.2306	-12.7471	2.02402	1.76422	8.76382	-0.3819	20.6335	1.38959	23.6971	-8.00227	-23.077	-16.1049	-35.2933	1.27E-14	3.02E-14	1.27E-14
8.6623	103.131	-223.414	7.19107	12.2926	172.852	-39.4169	-50.9821	-28.765	4.75369	30.5355	-29.5452	0.90083	-8.62668	-15.482	0.0462048	0.000533964	0.662642	-0.437381	-1.52314	-0.280216	-0.882689	-3.04129	-0.572574	11.286	26.7081	-14.8163	-8.83E-32	3.18E-15	1.59E-15	-63.2456	18.4574	17.4013	-11.5313	1.51149	-21.7737	1.41276	4.18066	1.17934	-8.83E-32	3.18E-15	1.59E-15	21.9725	-4.46202	21.8844	15.7486	-27.6359	47.093	-13.0691	1.98654	1.93112	9.05605	0.654822	20.4175	1.50056	23.3917	-8.06626	-22.9602	-15.9079	-35.2218	1.43E-14	3.50E-14	9.54E-15
8.8743	103.263	-224.046	7.53015	12.6786	172.702	-40.0049	-50.9344	-27.6936	4.86813	30.966	-28.7183	0.522588	-8.42495	-16.1634	0.0462048	0.000533964	0.662642	-0.370832	-1.51414	-0.295904	-0.749888	-3.02352	-0.60214	11.4674	27.1489	-15.1119	2.39E-15	6.36E-15	0.00E+00	-63.4465	18.3997	17.2765	-11.7987	1.0485	-22.1028	1.83703	3.94386	1.11209	2.39E-15	6.36E-15	0.00E+00	22.1029	-5.27674	21.156	15.5008	-27.0324	47.0075	-13.0601	1.88301	2.09585	9.34799	1.68157	20.4403	1.57999	23.0998	-8.00611	-22.8697	-15.6722	-35.2213	1.23E-14	3.66E-14	9.54E-15
9.0712	103.359	-224.66	7.88394	13.0282	172.416	-40.4427	-50.7888	-26.5509	5.15508	31.4732	-27.9107	0.263909	-8.11737	-16.3875	0.0462048	0.000533964	0.662642	-0.291693	-1.50454	-0.29284	-0.591394	-3.00477	-0.593869	11.608	27.5481	-15.3048	-3.98E-16	3.18E-15	0.00E+00	-63.6449	18.3628	17.3302	-12.0489	0.62314	-22.5113	2.30756	3.61097	1.21438	-3.98E-16	3.18E-15	0.00E+00	22.1649	-5.7126	20.4764	15.3266	-26.7344	46.9754	-12.7996	1.82589	2.27171	9.64255	2.63153	20.4856	1.68041	22.9126	-7.90519	-22.8395	-15.4811	-35.2012	1.87E-14	3.34E-14	9.54E-15
9.2871	103.415	-225.28	8.28691	13.2799	172.057	-40.3082	-50.5691	-25.3502	5.14441	31.8194	-27.0399	-0.0108169	-7.83389	-16.1788	0.0462048	0.000533964	0.662642	-0.185391	-1.49734	-0.268879	-0.378018	-2.991	-0.543112	11.746	27.8478	-15.4843	-7.95E-16	-3.18E-15	0.00E+00	-63.8607	18.3833	17.4266	-12.2122	0.329201	-22.9444	2.68388	3.33678	1.46849	-7.95E-16	-3.18E-15	0.00E+00	22.1257	-5.79895	19.7947	15.2606	-26.783	46.9894	-12.4495	1.87458	2.4702	9.99219	3.43664	20.4633	1.79342	22.8474	-7.91775	-22.8357	-15.4008	-35.1055	2.03E-14	2.94E-14	1.27E-14
9.5202	103.423	-225.904	8.67376	13.3827	171.699	-39.5033	-50.2575	-24.0611	4.615	31.8666	-26.0481	-0.356264	-7.653	-15.7889	0.0462048	0.000533964	0.662642	-0.0667967	-1.49694	-0.244987	-0.140083	-2.99081	-0.492211	11.8791	28.0101	-15.6487	7.95E-16	9.54E-15	0.00E+00	-63.9875	18.3519	17.511	-12.3337	0.343361	-23.3789	2.88593	3.20763	1.75535	7.95E-16	9.54E-15	0.00E+00	22.1237	-5.6634	19.1553	15.1622	-27.0123	46.9824	-12.1469	1.95042	2.66265	10.3462	4.03486	20.3951	1.91014	22.8774	-8.04845	-22.8338	-15.3706	-35.0013	1.63E-14	3.34E-14	6.36E-15
9.7638	103.382	-226.52	8.89835	13.4363	171.382	-38.4455	-49.6943	-22.926	3.72647	31.5964	-24.9102	-0.462963	-7.59607	-15.2014	0.0462048	0.000533964	0.662642	0.0164013	-1.50174	-0.218977	0.0270588	-3.00076	-0.437993	11.9971	28.097	-15.8277	0.00E+00	0.00E+00	-3.18E-15	-63.9896	18.2234	17.6354	-12.4426	0.750393	-23.7774	2.90038	3.20337	1.89582	0.00E+00	0.00E+00	-3.18E-15	22.2335	-5.37796	18.4929	14.9696	-27.2081	46.921	-12.0217	1.97324	2.82234	10.5198	4.51218	20.2729	2.03054	22.9679	-8.21257	-22.7834	-15.2977	-34.9132	1.83E-14	3.10E-14	9.54E-15
9.9968	103.293	-227.119	8.8856	13.4334	171.119	-37.6507	-48.8469	-22.1659	2.84198	31.0046	-24.0143	-0.566911	-7.57675	-14.6765	0.0462048	0.000533964	0.662642	0.040101	-1.52666	-0.187597	0.0752245	-3.05067	-0.37457	12.0747	28.1071	-16.0423	2.39E-15	0.00E+00	0.00E+00	-63.892	18.0082	17.7765	-12.5	1.60784	-24.1117	2.80275	3.22056	1.96772	2.39E-15	0.00E+00	0.00E+00	22.5185	-5.07236	17.7841	14.666	-27.1542	46.7472	-12.1753	1.94026	2.96634	10.4413	4.82813	20.1451	2.14826	23.1395	-8.36307	-22.6577	-15.1206	-34.8578	9.54E-15	3.26E-14	9.54E-15
10.2128	103.156	-227.693	8.74156	13.4719	170.925	-37.0119	-47.6139	-21.6929	2.02449	30.0845	-23.584	-0.691488	-7.59527	-14.2452	0.0462048	0.000533964	0.662642	0.0326205	-1.55134	-0.16033	0.060914	-3.1	-0.320197	12.088	28.0765	-16.3003	-1.19E-15	3.18E-15	1.59E-15	-63.7952	17.7904	17.9669	-12.4276	2.81127	-24.3773	2.62895	3.22895	2.07524	-1.19E-15	3.18E-15	1.59E-15	23.0212	-4.77385	17.0302	14.1568	-26.7121	46.3981	-12.5392	1.87008	3.052	10.2223	5.08308	20.011	2.25022	23.411	-8.51854	-22.4449	-14.8555	-34.8405	5.17E-15	3.26E-14	-3.18E-15
10.4208	102.982	-228.26	8.60483	13.588	170.767	-36.2141	-46.0263	-21.2538	1.21848	28.9414	-23.6082	-0.786591	-7.81012	-13.9873	0.0462048	0.000533964	0.662642	0.0334748	-1.56196	-0.135342	0.0632757	-3.12121	-0.270167	12.0382	28.04	-16.5821	-3.98E-16	-3.18E-15	0.00E+00	-63.7288	17.6341	18.2047	-12.2284	4.18356	-24.5632	2.41825	3.26595	2.26124	-3.98E-16	-3.18E-15	0.00E+00	23.6228	-4.47541	16.2041	13.4912	-25.8967	45.839	-12.8854	1.87323	3.10583	10.0273	5.36409	19.8476	2.31029	23.7757	-8.66626	-22.1157	-14.5237	-34.8204	1.51E-14	2.94E-14	6.36E-15
